<svg width="394" height="137" viewBox="0 0 394 137" fill="none" xmlns="http://www.w3.org/2000/svg">
<g filter="url(#filter0_d)">
<path d="M107.217 14.9278C102.478 15.7018 93.5329 27.4738 89.653 33.2631C91.8494 53.7253 116.966 54.085 125.481 54.7767C133.995 55.4683 109.787 63.5858 108.174 66.5262C106.56 69.4667 101.088 108.344 106.236 111.371C111.383 114.397 156.246 22.3878 148.112 20.7418C141.604 19.425 125.313 18.0205 114.09 13.8054C123.035 29.0012 131.082 50.352 122.835 43.6085C112.526 35.1791 113.142 13.9602 107.217 14.9278Z" fill="#363533"/>
<path d="M153.215 20.4305C154.24 13.1441 179 12.7038 181.142 12.9475C177.467 16.0828 168.964 26.8418 164.357 44.7954C169.183 44.4562 181.011 14.7092 185.189 13.4079C189.367 12.1066 206.269 14.0295 212.088 16.4682C217.907 18.907 195.551 38.5725 171.429 49.7457C201.415 59.6719 198.645 99.9251 199.506 104.465C200.367 109.005 188.379 114.898 174.755 104.465C161.131 94.0313 168.239 83.0331 171.429 75.6969C174.618 68.3606 167.07 67.0462 160.412 59.774C168.94 99.832 156.889 121.566 126.114 99.7057C136.985 83.9532 152.19 27.7169 153.215 20.4305Z" fill="#363533"/>
<path d="M196.509 49.4537C185.034 63.9022 188.859 59.774 212.047 67.1457C209.975 76.8764 205.497 99.5222 204.158 112.261C202.485 128.183 241.212 103.414 248.144 96.3377C255.077 89.2608 228.064 13.1849 227.347 10.5311C226.629 7.8773 207.983 35.0051 196.509 49.4537Z" fill="#363533"/>
<path d="M67.6248 94.2081C64.2751 94.3898 69.0921 74.3684 70.3388 70.6216C75.8797 50.1122 80.3087 75.8598 80.1847 84.9121C80.1103 90.3401 70.9745 94.0264 67.6248 94.2081Z" fill="#363533"/>
<path d="M69.325 32.6368C66.6966 38.2401 39.5121 49.5665 57.4473 78.4577C53.4657 90.5486 46.5375 116.505 49.0255 125.232C52.1356 136.141 101.371 90.7152 101.848 87.1766C102.325 83.638 80.3172 13.1719 76.7308 10.2244C73.1443 7.27689 71.9534 27.0334 69.325 32.6368Z" fill="#363533"/>
<path d="M291.891 93.389C291.891 93.389 265.101 118.064 256.272 112.73C251.755 110.001 251.555 81.2579 252.686 52.1562C246.79 50.8218 242.491 49.5347 242.395 48.6241C239.769 39.17 235.379 20.2618 238.821 20.2618C242.263 20.2618 250.451 23.0578 254.114 24.4559C254.513 18.1421 254.393 20.7251 254.792 15.6564L267.06 17.7089C266.896 23.5769 266.914 20.5069 266.841 25.4586L276.874 26.2492L280.127 57.2052C276.51 56.6433 271.84 55.872 267.026 55.0062C268.097 83.4099 274.175 62.2696 276.874 61.8381C280.57 61.2472 291.891 93.389 291.891 93.389Z" fill="#363533"/>
<path d="M68.6845 21.499C70.6674 16.2748 18.6952 1.76462 13.2269 0.801819C-7.64976 25.8726 5.06004 45.0698 7.39102 56.4205C3.14735 59.1571 5.62369 117.181 13.2269 125.515C22.0196 135.152 28.6174 66.5413 47.8325 97.942C50.9869 103.097 42.3743 55.1643 40.359 50.7637C41.8555 51.8094 66.7015 26.7232 68.6845 21.499Z" fill="#363533"/>
<path d="M331.754 14.1035C332.548 9.35508 291.701 10.5222 287.478 11.1041C275.16 36.7291 287.221 49.1838 290.469 57.8426C286.47 62.5117 297.188 107.751 303.986 112.637C311.848 118.287 326.255 102.825 326.255 81.546C326.255 76.4739 316.505 48.0825 314.413 45.0033C315.672 45.4808 330.96 18.8519 331.754 14.1035Z" fill="#363533"/>
<path d="M335.196 30.4093C339.814 28.4372 333.687 14.6857 337.55 6.47707C339.773 5.7471 359.203 2.36403 365.316 6.47706C370.446 9.92797 381.99 14.318 384.165 15.5751C388.933 18.3306 360.357 97.8281 356.817 104.203C353.278 110.578 326.747 65.6074 323.868 55.5233C320.989 45.4392 321.194 36.3886 335.196 30.4093Z" fill="#363533"/>
<path d="M212.047 67.1457C188.859 59.774 185.034 63.9022 196.509 49.4537C207.983 35.0051 226.629 7.8773 227.347 10.5311C228.064 13.1849 255.077 89.2608 248.144 96.3377C241.212 103.414 202.485 128.183 204.158 112.261C205.497 99.5222 209.975 76.8764 212.047 67.1457ZM212.047 67.1457C213.561 59.3809 218.167 44.0281 224.478 44.7358M57.4473 78.4577C39.5121 49.5665 66.6966 38.2401 69.325 32.6368C71.9534 27.0334 73.1443 7.27689 76.7308 10.2244C80.3172 13.1719 102.325 83.638 101.848 87.1766C101.371 90.7152 52.1356 136.141 49.0255 125.232C46.5375 116.505 53.4657 90.5486 57.4473 78.4577ZM57.4473 78.4577C58.569 55.7294 73.855 45.8877 78.3426 42.9984L78.4112 42.9542M266.841 25.4586L276.874 26.2492L280.127 57.2052C276.51 56.6433 271.84 55.872 267.026 55.0062C268.097 83.4099 274.175 62.2696 276.874 61.8381C280.57 61.2472 291.891 93.389 291.891 93.389C291.891 93.389 265.101 118.064 256.272 112.73C251.755 110.001 251.555 81.2579 252.686 52.1562C246.79 50.8218 242.491 49.5347 242.395 48.6241C239.769 39.17 235.379 20.2618 238.821 20.2618C242.263 20.2618 250.451 23.0578 254.114 24.4559C254.513 18.1421 254.393 20.7251 254.792 15.6564L267.06 17.7089C266.896 23.5769 266.914 20.5069 266.841 25.4586ZM266.841 25.4586L265.494 25.3525M7.39102 56.4205C5.06004 45.0698 -7.64976 25.8726 13.2269 0.801819C18.6952 1.76462 70.6674 16.2748 68.6845 21.499C66.7015 26.7232 41.8555 51.8094 40.359 50.7637C42.3743 55.1643 50.9869 103.097 47.8325 97.942C28.6174 66.5413 22.0196 135.152 13.2269 125.515C5.62369 117.181 3.14735 59.1571 7.39102 56.4205ZM7.39102 56.4205C11.6347 53.684 19.3216 50.8284 24.3488 54.826C26.2788 56.3607 27.8167 58.9054 28.6174 62.8545M290.469 57.8426C287.221 49.1838 275.16 36.7291 287.478 11.1041C291.701 10.5222 332.548 9.35508 331.754 14.1035C330.96 18.8519 315.672 45.4808 314.413 45.0033C316.505 48.0825 326.255 76.4739 326.255 81.546C326.255 102.825 311.848 118.287 303.986 112.637C297.188 107.751 286.47 62.5117 290.469 57.8426ZM290.469 57.8426C293.285 54.5548 298.665 50.3101 302.959 52.3091C304.608 53.0765 306.096 54.7641 307.219 57.7793M365.316 6.47706C370.446 9.92797 381.99 14.318 384.165 15.5751C388.933 18.3306 360.357 97.8281 356.817 104.203C353.278 110.578 326.747 65.6074 323.868 55.5233C320.989 45.4392 321.194 36.3886 335.196 30.4093C339.814 28.4372 333.687 14.6857 337.55 6.47707C339.773 5.7471 359.203 2.36403 365.316 6.47706ZM365.316 6.47706C361.108 15.5793 352.667 34.4429 352.567 37.0795C345.793 45.0209 340.992 38.2898 347.082 57.8796M7.0171 10.3442L10.6029 19.5927L7.0171 27.6852L9.26735 32.2984M9.26735 32.2984L12.5153 38.9569M9.26735 32.2984L12.5153 31.587M115.906 33.3211L113.037 38.6679L106.583 34.4771L104.909 38.2344M104.909 38.2344L103.236 41.9916M104.909 38.2344L102.638 37.3673M144.114 54.9974L146.624 61.6448M146.624 61.6448L145.548 68.2922H150.807L149.971 75.2286M146.624 61.6448L150.807 62.6563M238.062 29.1303H242.843L244.636 38.0898L247.504 36.5725M253.242 38.0898L250.373 35.0552L247.504 36.5725M247.504 36.5725L251.807 45.8933M377.071 48.639L372.888 42.7141L368.943 45.6766M362.847 42.7141L364.999 48.639L368.943 45.6766M368.943 45.6766L370.378 51.6737L362.847 60.6332M89.653 33.2631C93.5329 27.4738 102.478 15.7018 107.217 14.9278C113.142 13.9602 112.526 35.1791 122.835 43.6085C131.082 50.352 123.035 29.0012 114.09 13.8054C125.313 18.0205 141.604 19.425 148.112 20.7418C156.246 22.3878 111.383 114.397 106.236 111.371C101.088 108.344 106.56 69.4667 108.174 66.5262C109.787 63.5858 133.995 55.4683 125.481 54.7767C116.966 54.085 91.8494 53.7253 89.653 33.2631ZM181.142 12.9475C179 12.7038 154.24 13.1441 153.215 20.4305C152.19 27.7169 136.985 83.9532 126.114 99.7057C156.889 121.566 168.94 99.832 160.412 59.774C167.07 67.0462 174.618 68.3606 171.429 75.6969C168.239 83.0331 161.131 94.0313 174.755 104.465C188.379 114.898 200.367 109.005 199.506 104.465C198.645 99.9251 201.415 59.6719 171.429 49.7457C195.551 38.5725 217.907 18.907 212.088 16.4682C206.269 14.0295 189.367 12.1066 185.189 13.4079C181.011 14.7092 169.183 44.4562 164.357 44.7954C168.964 26.8418 177.467 16.0828 181.142 12.9475ZM224.478 68.6201C223.283 73.0431 218.741 96.6325 222.087 96.3377C225.434 96.0428 234.518 91.498 234.518 85.1327C234.518 74.5174 229.737 44.4409 224.478 68.6201ZM70.3388 70.6216C69.0921 74.3684 64.2751 94.3898 67.6248 94.2081C70.9745 94.0264 80.1103 90.3401 80.1847 84.9121C80.3087 75.8598 75.8797 50.1122 70.3388 70.6216ZM27.2725 22.2113C23.7199 25.0902 17.7295 32.2086 22.1891 37.6512C25.1833 36.4605 31.5748 32.8784 37.271 44.3112L27.2725 22.2113ZM300.832 25.0263C298.552 28.2574 295.008 35.5488 299.068 38.866C301.153 37.1488 305.466 32.6362 311.246 40.5213L300.832 25.0263Z" stroke="#87826F"/>
</g>
<defs>
<filter id="filter0_d" x="0.930145" y="0.259132" width="392.27" height="136.16" filterUnits="userSpaceOnUse" color-interpolation-filters="sRGB">
<feFlood flood-opacity="0" result="BackgroundImageFix"/>
<feColorMatrix in="SourceAlpha" type="matrix" values="0 0 0 0 0 0 0 0 0 0 0 0 0 0 0 0 0 0 127 0"/>
<feOffset dx="8" dy="9"/>
<feColorMatrix type="matrix" values="0 0 0 0 0.266667 0 0 0 0 0.246756 0 0 0 0 0.235556 0 0 0 1 0"/>
<feBlend mode="normal" in2="BackgroundImageFix" result="effect1_dropShadow"/>
<feBlend mode="normal" in="SourceGraphic" in2="effect1_dropShadow" result="shape"/>
</filter>
</defs>
</svg>
