<svg width="181" height="181" viewBox="0 0 181 181" fill="none" xmlns="http://www.w3.org/2000/svg">
<path d="M14.1107 53.5406C21.899 46.0259 30.3675 29.9002 33.6281 22.7767C37.4916 23.0992 45.836 24.8607 48.3063 29.3268C50.7765 33.7929 33.7433 60.3563 24.918 73.0797C23.2226 71.1633 18.6876 64.5724 14.1107 53.5406Z" fill="#363533"/>
<path d="M34.9876 58.1085C35.7863 55.0127 35.3711 43.8856 35.0636 38.709C40.8239 39.1898 46.9794 38.8173 52.9565 38.0139C53.3235 31.1478 53.3557 25.2313 52.8781 21.1496C54.8187 19.0179 63.7489 8.7017 68.007 3.76895C69.0223 4.49931 69.0393 17.8217 68.5823 35.0249C78.3803 32.6734 85.629 30.1733 86.4027 30.4164C87.6481 30.8079 89.7463 42.0755 90.6396 47.6603C85.4399 49.2041 77.0956 51.4397 67.9774 53.447C67.7849 58.4996 67.5711 63.6198 67.346 68.6393C73.3455 67.4759 78.5352 66.2264 82.0096 65.2677C83.7695 69.0082 87.1789 77.127 86.7373 79.6776C86.4652 81.2491 77.7283 83.3364 66.5259 85.5795C65.7022 101.373 64.886 113.585 64.5 115.196C63.3176 120.128 61.8052 117.486 43.999 108.453C44.6252 105.991 45.9006 98.7253 47.3089 89.2659C41.3365 90.4024 35.5463 91.53 30.6559 92.6054C31.3429 88.6379 31.1564 77.0747 30.9772 71.789C36.6744 72.2645 43.2168 71.9869 49.7672 71.3046C50.3734 66.4578 50.9485 61.4787 51.4497 56.5833C45.4817 57.5004 39.7788 58.0924 34.9876 58.1085Z" fill="#363533"/>
<path d="M12.3198 130.246C12.9086 126.845 11.6258 111.501 10.9108 104.254C25.7979 105.496 90.6682 98.6927 93.5809 98.9358C96.4936 99.179 97.1028 108.933 98.2092 123.4C93.8624 121.959 43.6275 123.875 12.3198 130.246Z" fill="#363533"/>
<path d="M124.292 66.7113C124.292 60.7577 120.578 60.4742 103.864 46.5827C103.864 48.7562 102.796 56.6186 98.5244 70.6803C100.149 68.9793 113.381 79.1853 111.06 79.1853C109.203 79.1853 98.0601 74.6493 92.7208 72.3813C93.4946 74.1768 94.1136 79.9224 90.3994 88.5408C94.1136 87.9738 112.917 108.386 115.703 108.102C118.489 107.819 120.578 95.0614 120.346 91.3759C120.114 87.6903 103.864 79.7523 105.953 79.1853C108.042 78.6183 115.239 84.5718 117.096 84.2883C118.953 84.0048 124.292 72.6648 124.292 66.7113Z" fill="#363533"/>
<path d="M119.766 117.354C120.387 114.389 110.021 107.133 104.76 103.876C104.76 120.387 80.6988 141.953 81.7337 143.301C82.7686 144.649 94.1525 166.552 97.7747 166.552C101.397 166.552 118.99 121.061 119.766 117.354Z" fill="#363533"/>
<path d="M128.612 70.7794C128.612 67.1544 124.133 58.5071 121.893 54.6366C137.881 54.6366 160.357 35.3784 161.516 36.228C162.675 37.0776 174.955 53.2205 175.419 54.6366C175.882 56.0526 128.612 75.3108 128.612 70.7794Z" fill="#363533"/>
<path d="M125.6 100.8C125.6 96.9479 123.128 87.4887 121.893 83.2406C156.882 83.2406 173.333 77.01 175.419 79.2757C177.087 81.0882 179.821 92.4921 180.98 97.9675C170.089 98.9115 143.767 100.8 125.6 100.8Z" fill="#363533"/>
<path d="M140.489 60.479C142.552 60.025 150.102 54.6144 153.619 51.9659C153.619 57.6413 157.839 92.7342 159.95 109.571C160.34 110.423 157.605 113.09 143.537 116.949C143.771 112.693 142.13 65.8706 140.489 60.479Z" fill="#363533"/>
<path fill-rule="evenodd" clip-rule="evenodd" d="M117.993 155.771C127.951 174.383 126.494 170.487 134.751 180.01C134.526 175.713 134.256 170.213 134.006 164.505L176.766 174.383L177.981 100.8C165.19 104.407 136.354 110.409 123.336 105.561C124.033 107.298 122.652 117.721 121.073 129.642C119.899 138.507 118.615 148.202 117.993 155.771ZM133.537 133.263C134.508 132.917 153.694 125.327 163.166 121.576C163.235 123.925 162.794 131.654 160.711 145.362C152.657 147.109 141.646 148.153 133.401 148.641C133.14 140.038 133.091 133.422 133.537 133.263Z" fill="#363533"/>
</svg>
